# xmcd
#
# Track frame offsets:
#	150
#	15882
#	32223
#	44292
#	68914
#	81987
#	106525
#	118148
#	143632
#	168270
#	190198
#	203546
#	218953
#	244752
#	265515
#	290807
#
# Disc length: 4388 seconds
#
# Revision: 0
# Processed by: cddbd v1.4PL0 Copyright (c) Steve Scherf et al.
# Submitted via: EasyCDDAExtractor 4.6.0.1
#
DISCID=da112210
DTITLE=Big Walker - Still Dream Walking
DYEAR=2002
DGENRE=Blues
TTITLE0=Dream Walking
TTITLE1=If I had one wish
TTITLE2=Open book
TTITLE3=I new the first time you
TTITLE4=I need my prescription
TTITLE5=Stars in the sky
TTITLE6=I dont want to see
TTITLE7=Drive by blues
TTITLE8=My favorite tree
TTITLE9=Im gonna write a letter
TTITLE10=Little Elijah Jane
TTITLE11=Boogie woogie nighthawk
TTITLE12=Black ice
TTITLE13=Dream walking part II
TTITLE14=Where shall I be
TTITLE15=Datatrack
EXTD=
EXTT0=
EXTT1=
EXTT2=
EXTT3=
EXTT4=
EXTT5=
EXTT6=
EXTT7=
EXTT8=
EXTT9=
EXTT10=
EXTT11=
EXTT12=
EXTT13=
EXTT14=
EXTT15=
PLAYORDER=
